M48
;DRILL file {KiCad 4.0.6-e0-6349~53~ubuntu16.04.1} date Tue Mar 14 17:04:48 2017
;FORMAT={-:-/ absolute / inch / decimal}
FMAT,2
INCH,TZ
T1C0.012
T2C0.016
T3C0.035
T4C0.049
T5C0.051
T6C0.073
T7C0.079
T8C0.148
T9C0.149
%
G90
G05
M72
T1
X1.5988Y-6.4346
X1.702Y-6.3213
X1.7748Y-5.2244
X1.8539Y-5.2248
X1.8925Y-6.3315
X1.9732Y-5.472
X2.0311Y-5.0705
X2.1252Y-5.1205
X2.248Y-6.4394
X2.2827Y-4.9154
X2.2846Y-7.3272
X2.289Y-4.7303
X2.289Y-4.7787
X2.3028Y-7.4071
X2.5736Y-6.2874
X2.578Y-6.4012
X4.5079Y-7.1795
X4.6551Y-6.4657
X4.6622Y-6.2972
X4.7339Y-5.3866
X4.7866Y-7.2094
X4.815Y-5.3854
X4.8791Y-6.3008
X4.9382Y-5.3835
X4.9909Y-5.0531
X5.0071Y-6.3327
X5.0744Y-5.0992
X5.0913Y-6.4004
X5.1953Y-7.3866
X5.2193Y-6.4024
X5.2272Y-5.1047
X5.5441Y-6.1661
X5.5476Y-6.35
X6.1811Y-2.7795
X6.2665Y-3.0323
X6.3488Y-2.778
T2
X1.1717Y-6.0945
X1.435Y-6.5248
X1.4406Y-5.0004
X1.4429Y-7.5193
X1.4866Y-6.5382
X1.5209Y-5.2622
X1.5209Y-5.9374
X1.5996Y-7.4543
X1.7299Y-7.3283
X1.7992Y-7.4244
X1.8134Y-6.3181
X1.815Y-3.461
X1.8933Y-3.3003
X1.8933Y-5.124
X1.9492Y-7.3303
X2.06Y-6.2774
X2.0957Y-5.0075
X2.1165Y-6.3858
X2.178Y-5.8441
X2.1843Y-3.4614
X2.1843Y-4.7697
X2.2634Y-5.02
X2.4972Y-6.4799
X2.534Y-7.5054
X2.6276Y-5.1902
X2.6409Y-5.9386
X2.6553Y-7.1322
X2.6799Y-7.2921
X2.7894Y-3.0012
X3.015Y-5.5992
X3.3587Y-5.5878
X4.2051Y-6.0323
X4.2496Y-7.4535
X4.4138Y-4.987
X4.4146Y-7.4177
X4.4693Y-6.5555
X4.5874Y-7.285
X4.6695Y-5.7193
X4.7103Y-6.4429
X4.7646Y-7.4232
X4.7795Y-3.4614
X4.7811Y-2.9496
X4.7887Y-6.2759
X4.8555Y-5.0988
X4.8559Y-3.3004
X4.8709Y-7.2807
X5.0406Y-4.974
X5.0736Y-6.1791
X5.0827Y-6.3504
X5.1713Y-3.4614
X5.1713Y-4.7559
X5.2921Y-5.0006
X5.3526Y-5.6281
X5.3744Y-6.2433
X5.4177Y-7.4933
X5.4252Y-6.4874
X5.6244Y-5.1591
X5.713Y-7.0787
X5.885Y-5.5398
X6.2008Y-5.5693
X6.3429Y-5.9083
T3
X1.56Y-2.625
X1.66Y-2.525
X1.66Y-2.625
X1.76Y-2.625
X2.4475Y-2.6275
X2.5475Y-2.5275
X2.5475Y-2.6275
X2.6475Y-2.6275
X3.3325Y-2.6275
X3.4325Y-2.5275
X3.4325Y-2.6275
X3.5325Y-2.6275
X4.295Y-2.6275
X4.395Y-2.5275
X4.395Y-2.6275
X4.495Y-2.6275
T4
X5.9699Y-2.4703
X6.0244Y-2.3584
X6.0789Y-2.4703
X6.1335Y-2.3584
X6.188Y-2.4703
X6.2425Y-2.3584
X6.2971Y-2.4703
X6.3516Y-2.3584
X6.4061Y-2.4703
T5
X5.9537Y-3.3003
X6.1537Y-3.3003
X6.3537Y-3.3003
T6
X1.302Y-7.6775
X1.387Y-8.1775
X1.487Y-7.6775
X1.587Y-8.1775
X1.672Y-7.6775
X2.242Y-7.6775
X2.327Y-8.1775
X2.427Y-7.6775
X2.527Y-8.1775
X2.612Y-7.6775
X3.178Y-7.679
X3.263Y-8.179
X3.363Y-7.679
X3.463Y-8.179
X3.548Y-7.679
X4.118Y-7.678
X4.203Y-8.178
X4.303Y-7.678
X4.403Y-8.178
X4.488Y-7.678
X5.051Y-7.682
X5.136Y-8.182
X5.236Y-7.682
X5.336Y-8.182
X5.421Y-7.682
X5.99Y-7.678
X6.075Y-8.178
X6.175Y-7.678
X6.275Y-8.178
X6.36Y-7.678
T7
X1.46Y-2.275
X1.86Y-2.275
X2.3475Y-2.2775
X2.7475Y-2.2775
X3.2325Y-2.2775
X3.6325Y-2.2775
X4.195Y-2.2775
X4.595Y-2.2775
T8
X1.7918Y-7.8712
X1.7918Y-8.135
X2.0416Y-7.6547
X2.7268Y-7.8712
X2.7268Y-8.135
X2.9766Y-7.6547
X3.6638Y-7.8722
X3.6638Y-8.136
X3.9136Y-7.6557
X4.5998Y-7.8742
X4.5998Y-8.138
X4.8496Y-7.6577
X5.5358Y-7.8742
X5.5358Y-8.138
X5.7856Y-7.6577
X6.4708Y-7.8772
X6.4708Y-8.141
X6.7206Y-7.6607
T9
X5.6951Y-2.4144
X6.6809Y-2.4144
T0
M30
